# xmcd
#
# Track frame offsets:
#	150
#	24151
#	103282
#	128412
#	163293
#	188423
#	219554
#
# Disc length: 4307 seconds
#
# Revision: 1
# Processed by: cddbd v1.5.2PL0 Copyright (c) Steve Scherf et al.
# Submitted via: audiograbber 1.83.01
#
DISCID=5510d107
DTITLE=Grateful Dead - 71-03-20 University of Iowa, Iowa City IA
DYEAR=1900
DGENRE=
TTITLE0=Big Boss Man
TTITLE1=Good Lovin'
TTITLE2=Casey Jones
TTITLE3=Sugar Magnolia
TTITLE4=Around and Around
TTITLE5=Uncle John's Band
TTITLE6=Turn On Your Lovelight
EXTD=
EXTT0=
EXTT1=
EXTT2=
EXTT3=
EXTT4=
EXTT5=
EXTT6=
PLAYORDER=
